<?xml version="1.0" encoding="UTF-8"?>
<svg width="16px" height="16px" viewBox="0 0 16 16" version="1.1" xmlns="http://www.w3.org/2000/svg" xmlns:xlink="http://www.w3.org/1999/xlink">
    <!-- Generator: Sketch 41.2 (35397) - http://www.bohemiancoding.com/sketch -->
    <title>[icon]/alert/dark</title>
    <desc>Created with Sketch.</desc>
    <defs></defs>
    <g id="Symbols" stroke="none" stroke-width="1" fill="none" fill-rule="evenodd">
        <g id="[icon]/alert/dark" fill="currentColor">
            <path d="M7.04423529,15.5374902 C7.31482353,15.8080784 7.62915033,15.9389281 7.99563399,15.9389281 C8.37105882,15.9389281 8.68073203,15.8037647 8.93845752,15.5374902 C9.19581699,15.2713464 9.33118954,14.9613072 9.33118954,14.5948235 L6.65150327,14.5948235 C6.65150327,14.9613072 6.78240523,15.2754771 7.04423529,15.5374902 L7.04423529,15.5374902 Z" id="Shape"></path>
            <path d="M15.9126536,13.3639216 C15.2875294,12.4423529 14.8176993,11.4535425 14.498719,10.4134902 C14.1804706,9.37605229 13.8970196,7.87330719 13.6432157,5.90946405 C13.4955556,4.76588235 13.0273987,3.80109804 12.5084183,3.17728105 C12.2505098,2.86703268 11.9564706,2.58640523 11.6180915,2.33929412 C10.9527582,1.85328105 10.4134641,1.62347712 9.78496732,1.44023529 C9.69783007,1.02998693 9.48666667,0.691633987 9.14792157,0.419006536 C8.81440523,0.15048366 8.43210458,0.00875816993 7.99560784,0.00875816993 C7.56786928,0.00875816993 7.18389542,0.148418301 6.85223529,0.419006536 C6.52039216,0.689568627 6.31090196,1.02998693 6.22373856,1.44023529 C5.59524183,1.62347712 5.05299346,1.84917647 4.38185621,2.33929412 C4.04928105,2.58230065 3.75320261,2.8627451 3.49155556,3.17728105 C2.97631373,3.7968366 2.51335948,4.7659085 2.36551634,5.90946405 C2.11186928,7.87330719 1.82044444,9.37346405 1.50146405,10.4134902 C1.18321569,11.4509281 0.717490196,12.4397386 0.0960784314,13.3639216 C0.0366797386,13.4524183 0,13.5384052 0,13.6345098 C0,13.713098 0.0165751634,13.7835033 0.0610718954,13.8615425 C0.156235294,14.028 0.296836601,14.1146144 0.488810458,14.1146144 L15.5199216,14.1146144 C15.7119216,14.1146144 15.8515817,14.0272941 15.947634,13.8615425 C15.9824575,13.7829542 15.9999739,13.704366 15.9999739,13.6257778 C16,13.5296732 15.9685229,13.4462222 15.9126536,13.3639216 L15.9126536,13.3639216 Z M1.36180392,13.1456732 C1.88543791,12.2466144 2.28282353,11.2592941 2.55769935,10.2039739 C2.83291503,9.14682353 3.08282353,7.75019608 3.3256732,6.03160784 C3.5368366,4.53796078 4.21505882,3.59942484 5.06269281,3.03759477 C5.66418301,2.63908497 6.17887582,2.4305098 6.78240523,2.29571242 C6.99952941,2.24711111 7.14031373,2.05139869 7.14031373,1.83315033 L7.14031373,1.81566013 C7.14031373,1.35233987 7.53304575,0.977673203 7.99560784,0.977673203 C8.47568627,0.977673203 8.85108497,1.35309804 8.85108497,1.81566013 L8.85108497,1.83315033 C8.85108497,2.05139869 9.00622222,2.2419085 9.22648366,2.29571242 C9.82705882,2.44264052 10.3501176,2.63071895 10.937281,3.03759477 C11.2317124,3.24169935 11.4925752,3.46813072 11.7141961,3.72713725 C12.1646536,4.25377778 12.5423007,5.06287582 12.6743529,6.0315817 C12.9087843,7.75129412 13.1631634,9.13900654 13.4424837,10.1952157 C13.7218301,11.2514248 14.1232941,12.2378562 14.6471373,13.1456471 L1.36180392,13.1456471 L1.36180392,13.1456732 Z" id="Shape"></path>
        </g>
    </g>
</svg>