<?xml version="1.0" encoding="UTF-8"?>
<svg width="16px" height="16px" viewBox="0 0 16 16" version="1.1" xmlns="http://www.w3.org/2000/svg" xmlns:xlink="http://www.w3.org/1999/xlink">
    <!-- Generator: Sketch 41.2 (35397) - http://www.bohemiancoding.com/sketch -->
    <title>[icon]/cart/dark</title>
    <desc>Created with Sketch.</desc>
    <defs></defs>
    <g id="Symbols" stroke="none" stroke-width="1" fill="none" fill-rule="evenodd">
        <g id="[icon]/cart/dark" fill="currentColor">
            <g id="Group-2" transform="translate(2.000000, 0.000000)">
                <path d="M11.6972044,15.9393939 L0.242658911,15.9393939 C0.176234669,15.9393939 0.112719517,15.9122424 0.0671437594,15.8642424 C0.0215680019,15.8162424 -0.00267442237,15.7517576 0.000234668539,15.6853333 L0.545689214,4.23078788 C0.551992244,4.10133333 0.658174062,4 0.788113456,4 L11.1517498,4 C11.2812044,4 11.387871,4.10133333 11.3941741,4.23078788 L11.9396286,15.6853333 C11.9425377,15.7517576 11.9187801,15.8162424 11.8727195,15.8642424 C11.8266589,15.9122424 11.7631438,15.9393939 11.6972044,15.9393939 L11.6972044,15.9393939 Z M0.496719517,15.4545455 L11.4426589,15.4545455 L10.9204771,4.48484848 L1.01890134,4.48484848 L0.496719517,15.4545455 L0.496719517,15.4545455 Z" id="Shape"></path>
                <path d="M8.48363636,5.51515152 C8.34981818,5.51515152 8.24121212,5.40654545 8.24121212,5.27272727 L8.24121212,2.8630303 C8.24121212,1.552 7.17454545,0.484848485 5.8630303,0.484848485 C4.55151515,0.484848485 3.48484848,1.552 3.48484848,2.8630303 L3.48484848,5.27272727 C3.48484848,5.40654545 3.37624242,5.51515152 3.24242424,5.51515152 C3.10860606,5.51515152 3,5.40654545 3,5.27272727 L3,2.8630303 C3,1.28436364 4.28436364,0 5.8630303,0 C7.44169697,0 8.72606061,1.28436364 8.72606061,2.8630303 L8.72606061,5.27272727 C8.72606061,5.40654545 8.61793939,5.51515152 8.48363636,5.51515152 L8.48363636,5.51515152 Z" id="Shape"></path>
            </g>
        </g>
    </g>
</svg>