<svg width="20px" height="20px" viewBox="0 0 20 20" xmlns="http://www.w3.org/2000/svg">
    <g stroke="none" stroke-width="1" fill-rule="evenodd">
        <g>
            <g transform="translate(4.000000, 2.000000)">
                <g>
                    <g>
                        <path d="M11.7881212,16 L0.333575758,16 C0.267151515,16 0.203636364,15.9728485 0.158060606,15.9248485 C0.112484848,15.8768485 0.0882424242,15.8123636 0.0911515152,15.7459394 L0.636606061,4.29139394 C0.642909091,4.16193939 0.749090909,4.06060606 0.879030303,4.06060606 L11.2426667,4.06060606 C11.3721212,4.06060606 11.4787879,4.16193939 11.4850909,4.29139394 L12.0305455,15.7459394 C12.0334545,15.8123636 12.009697,15.8768485 11.9636364,15.9248485 C11.9175758,15.9728485 11.8540606,16 11.7881212,16 L11.7881212,16 Z M0.587636364,15.5151515 L11.5335758,15.5151515 L11.0113939,4.54545455 L1.10981818,4.54545455 L0.587636364,15.5151515 L0.587636364,15.5151515 Z"></path>
                        <path d="M8.68121212,5.51515152 C8.54739394,5.51515152 8.43878788,5.40654545 8.43878788,5.27272727 L8.43878788,2.8630303 C8.43878788,1.552 7.37212121,0.484848485 6.06060606,0.484848485 C4.74909091,0.484848485 3.68242424,1.552 3.68242424,2.8630303 L3.68242424,5.27272727 C3.68242424,5.40654545 3.57381818,5.51515152 3.44,5.51515152 C3.30618182,5.51515152 3.19757576,5.40654545 3.19757576,5.27272727 L3.19757576,2.8630303 C3.19757576,1.28436364 4.48193939,0 6.06060606,0 C7.63927273,0 8.92363636,1.28436364 8.92363636,2.8630303 L8.92363636,5.27272727 C8.92363636,5.40654545 8.81551515,5.51515152 8.68121212,5.51515152 L8.68121212,5.51515152 Z"></path>
                    </g>
                </g>
            </g>
        </g>
    </g>
</svg>
