<?xml version="1.0" encoding="UTF-8"?>
<svg width="16px" height="16px" viewBox="0 0 16 16" version="1.1" xmlns="http://www.w3.org/2000/svg" xmlns:xlink="http://www.w3.org/1999/xlink">
    <!-- Generator: Sketch 41.2 (35397) - http://www.bohemiancoding.com/sketch -->
    <title>[icon]/cart-fill</title>
    <desc>Created with Sketch.</desc>
    <defs></defs>
    <g id="Symbols" stroke="none" stroke-width="1" fill="none" fill-rule="evenodd">
        <g id="[icon]/cart-fill" fill="#333333">
            <path d="M13.6972044,15.9393939 L2.24265891,15.9393939 C2.17623467,15.9393939 2.11271952,15.9122424 2.06714376,15.8642424 C2.021568,15.8162424 1.99732558,15.7517576 2.00023467,15.6853333 L2.54568921,4.23078788 C2.55199224,4.10133333 2.65817406,4 2.78811346,4 L13.1517498,4 C13.2812044,4 13.387871,4.10133333 13.3941741,4.23078788 L13.9396286,15.6853333 C13.9425377,15.7517576 13.9187801,15.8162424 13.8727195,15.8642424 C13.8266589,15.9122424 13.7631438,15.9393939 13.6972044,15.9393939 L13.6972044,15.9393939 Z" id="Shape"></path>
            <path d="M10.4836364,5.51515152 C10.3498182,5.51515152 10.2412121,5.40654545 10.2412121,5.27272727 L10.2412121,2.8630303 C10.2412121,1.552 9.17454545,0.484848485 7.8630303,0.484848485 C6.55151515,0.484848485 5.48484848,1.552 5.48484848,2.8630303 L5.48484848,5.27272727 C5.48484848,5.40654545 5.37624242,5.51515152 5.24242424,5.51515152 C5.10860606,5.51515152 5,5.40654545 5,5.27272727 L5,2.8630303 C5,1.28436364 6.28436364,0 7.8630303,0 C9.44169697,0 10.7260606,1.28436364 10.7260606,2.8630303 L10.7260606,5.27272727 C10.7260606,5.40654545 10.6179394,5.51515152 10.4836364,5.51515152 L10.4836364,5.51515152 Z" id="Shape"></path>
        </g>
    </g>
</svg>