<svg width="20px" height="20px" viewBox="0 0 20 20" xmlns="http://www.w3.org/2000/svg">
    <g stroke="none" stroke-width="1" fill-rule="evenodd">
        <g>
            <path d="M10,3 L18,17 L2,17 L10,3 Z M10.7604457,13 L9.23955432,13 L9,7 L11,7 L10.7604457,13 Z M9,15 C9,14.7080853 9.09536447,14.4684428 9.28609626,14.2810651 C9.47682805,14.0936874 9.71479358,14 10,14 C10.2852064,14 10.523172,14.0936874 10.7139037,14.2810651 C10.9046355,14.4684428 11,14.7080853 11,15 C11,15.2919147 10.9046355,15.5315572 10.7139037,15.7189349 C10.523172,15.9063126 10.2852064,16 10,16 C9.71479358,16 9.47682805,15.9063126 9.28609626,15.7189349 C9.09536447,15.5315572 9,15.2919147 9,15 Z"></path>
        </g>
    </g>
</svg>
