<?xml version="1.0" encoding="UTF-8"?>
<svg width="16px" height="16px" viewBox="0 0 16 16" version="1.1" xmlns="http://www.w3.org/2000/svg" xmlns:xlink="http://www.w3.org/1999/xlink">
    <!-- Generator: Sketch 41.2 (35397) - http://www.bohemiancoding.com/sketch -->
    <title>[icon]/complete/inactive</title>
    <desc>Created with Sketch.</desc>
    <defs></defs>
    <g id="Symbols" stroke="none" stroke-width="1" fill="none" fill-rule="evenodd">
        <g id="[icon]/complete/inactive" fill="#BBBBBB">
            <path d="M6.33984439,13.0971906 C6.26786062,13.0460334 6.1498796,13 6.00115674,13 C5.85243387,13 5.73445286,13.0460334 5.66246909,13.0971906 L6.00115674,13.5737606 L6.33984439,13.0971906 Z M13.3308324,3.24227697 L5.99999769,10.2068955 L5.31117391,9.55027805 L2.66841585,7.03107846 L1.31042925,8.31786628 L6.44837712,13.1864332 L5.76055523,13.9123128 L6.00115674,13.5737606 L6.24175824,13.9123128 L5.55393636,13.1864332 L14.6895707,4.52977713 L13.3308324,3.24227697 Z M15.902834,4.75776398 L6.24175824,13.9123128 C6.16772701,13.9649251 6.09369578,14 6.00115674,14 C5.9086177,14 5.83458647,13.9649251 5.76055523,13.9123128 L0.0971659919,8.54585312 C-0.032388664,8.42309098 -0.032388664,8.21264158 0.0971659919,8.08987943 L2.4291498,5.88016076 C2.55870445,5.75739861 2.78079815,5.75739861 2.91035281,5.88016076 L6.00115674,8.82645232 L13.0896472,2.09207161 C13.2192019,1.96930946 13.4412955,1.96930946 13.5708502,2.09207161 L15.902834,4.30179028 C16.0323887,4.42455243 16.0323887,4.63500183 15.902834,4.75776398 Z" id="svg"></path>
        </g>
    </g>
</svg>