<svg width="26px" height="26px" viewBox="-1 -1 26 26" version="1.1" xmlns="http://www.w3.org/2000/svg" xmlns:xlink="http://www.w3.org/1999/xlink">
    <!-- Generator: Sketch 40.1 (33804) - http://www.bohemiancoding.com/sketch -->
    <desc>Created with Sketch.</desc>
    <defs></defs>
    <path d="M24,23.502966 C24,23.6403372 23.9599917,23.7577271 23.8824755,23.8551358 C23.7849552,23.9525445 23.6674307,24 23.5324026,24 L0.500104188,24 C0.362575537,24 0.245051052,23.9525445 0.147530736,23.8551358 C0.0500104188,23.7577271 0,23.6403372 0,23.502966 L0,22.5088979 C0,21.2201062 0.587622421,20.1960662 1.75786622,19.4342804 C2.44300896,19.0246644 3.3907064,18.5750859 4.60095853,18.0880425 C5.81371119,17.6209803 6.68139196,17.2488292 7.20900188,16.9765845 C8.40175036,16.3721511 8.99687435,15.5504215 8.99687435,14.5163909 C8.03917483,13.5423041 7.23900813,12.0686856 6.59387372,10.0980331 C6.20379246,8.84920387 6.00875182,7.44302217 6.00875182,5.88198564 C6.00875182,4.3034655 6.59387372,2.9272557 7.76661805,1.75585389 C8.93936237,0.584452076 10.3446551,0 11.9849969,0 C13.6453428,0 15.0631382,0.584452076 16.2358825,1.75585389 C17.4261304,2.9272557 18.0212544,4.34093038 18.0212544,5.99937559 C18.0212544,7.01342491 17.913732,8.00999063 17.6986872,8.98657509 C17.3486143,10.5476116 16.8010002,11.9113331 16.0583455,13.0827349 C15.6482601,13.7471121 15.2981871,14.2141742 15.0031257,14.4889166 C15.0031257,15.5229472 15.6007502,16.3521698 16.7909981,16.9765845 C17.318608,17.2488292 17.9037299,17.513581 18.5488643,17.7658445 C20.2892269,18.4302217 21.5094811,18.9847018 22.2121275,19.4342804 C23.404876,20.1760849 24,21.2001249 24,22.5088979 L24,23.502966 Z" id="Tab-Account-icon-inactive" stroke="#4E439B" stroke-width="1" fill="none"></path>
</svg>
