<svg width="20px" height="20px" viewBox="0 0 20 20" version="1.1" xmlns="http://www.w3.org/2000/svg">
    <g stroke="none" stroke-width="1" fill-rule="evenodd">
        <g>
            <g transform="translate(2.000000, 2.000000)">
                <g>
                    <g>
                        <path d="M7.984,6.8603871 C8.97987097,6.8603871 9.79045161,6.04980645 9.79045161,5.05393548 C9.79045161,4.05806452 8.97987097,3.24748387 7.984,3.24748387 C6.98812903,3.24748387 6.17754839,4.05806452 6.17754839,5.05393548 C6.17754839,6.04980645 6.98787097,6.8603871 7.984,6.8603871 L7.984,6.8603871 Z M7.984,3.7636129 C8.69548387,3.7636129 9.27432258,4.34245161 9.27432258,5.05393548 C9.27432258,5.76541935 8.69548387,6.34425806 7.984,6.34425806 C7.27251613,6.34425806 6.69367742,5.76541935 6.69367742,5.05393548 C6.69367742,4.34245161 7.27251613,3.7636129 7.984,3.7636129 L7.984,3.7636129 Z"></path>
                        <path d="M12.9589677,9.69909677 L11.1109677,9.69909677 L11.8972903,8.5636129 C13.3824516,6.584 13.1674839,3.33006452 11.4376774,1.60051613 C10.5032258,0.665806452 9.2603871,0.150967742 7.93832258,0.150967742 C6.61651613,0.150967742 5.37367742,0.665806452 4.43896774,1.60051613 C2.70916129,3.33006452 2.49419355,6.58425806 3.97341935,8.55587097 L4.76516129,9.69935484 L2.82632258,9.69935484 L0,15.6345806 L15.7852903,15.6345806 L12.9589677,9.69909677 L12.9589677,9.69909677 Z M4.39225806,8.25393548 C3.05058065,6.46477419 3.24283871,3.52619355 4.80412903,1.96516129 C5.64129032,1.128 6.75458065,0.66683871 7.93858065,0.66683871 C9.12258065,0.66683871 10.2356129,1.128 11.0730323,1.96516129 C12.6343226,3.52619355 12.8265806,6.46503226 11.4789677,8.26167742 L7.93832258,13.3747097 L5.39303226,9.69909677 L5.39303226,9.69909677 L4.39225806,8.25393548 L4.39225806,8.25393548 Z M3.15251613,10.2152258 L5.12258065,10.2152258 L7.93832258,14.2815484 L10.7538065,10.2152258 L12.6327742,10.2152258 L14.9677419,15.1184516 L0.817548387,15.1184516 L3.15251613,10.2152258 L3.15251613,10.2152258 Z"></path>
                    </g>
                </g>
            </g>
        </g>
    </g>
</svg>
