<svg width="20px" height="20px" viewBox="0 0 20 20" xmlns="http://www.w3.org/2000/svg">
    <g stroke="none" stroke-width="1" fill-rule="evenodd">
        <g>
            <path d="M10,14 C10.527378,14 10.9925558,14.2014888 11.3955335,14.6044665 C11.7985112,15.0074442 12,15.472622 12,16 C12,16.527378 11.7985112,16.9925558 11.3955335,17.3955335 C10.9925558,17.7985112 10.527378,18 10,18 C9.472622,18 9.00744417,17.7985112 8.6044665,17.3955335 C8.20148883,16.9925558 8,16.527378 8,16 C8,15.472622 8.20148883,15.0074442 8.6044665,14.6044665 C9.00744417,14.2014888 9.472622,14 10,14 L10,14 Z M10,8 C10.527378,8 10.9925558,8.20148883 11.3955335,8.6044665 C11.7985112,9.00744417 12,9.472622 12,10 C12,10.527378 11.7985112,10.9925558 11.3955335,11.3955335 C10.9925558,11.7985112 10.527378,12 10,12 C9.472622,12 9.00744417,11.7985112 8.6044665,11.3955335 C8.20148883,10.9925558 8,10.527378 8,10 C8,9.472622 8.20148883,9.00744417 8.6044665,8.6044665 C9.00744417,8.20148883 9.472622,8 10,8 L10,8 Z M10,6 C9.472622,6 9.00744417,5.79851117 8.6044665,5.3955335 C8.20148883,4.99255583 8,4.527378 8,4 C8,3.472622 8.20148883,3.00744417 8.6044665,2.6044665 C9.00744417,2.20148883 9.472622,2 10,2 C10.527378,2 10.9925558,2.20148883 11.3955335,2.6044665 C11.7985112,3.00744417 12,3.472622 12,4 C12,4.527378 11.7985112,4.99255583 11.3955335,5.3955335 C10.9925558,5.79851117 10.527378,6 10,6 L10,6 Z"></path>
        </g>
    </g>
</svg>
