<?xml version="1.0" encoding="UTF-8"?>
<svg width="16px" height="16px" viewBox="0 0 16 16" version="1.1" xmlns="http://www.w3.org/2000/svg" xmlns:xlink="http://www.w3.org/1999/xlink">
    <!-- Generator: Sketch 41.2 (35397) - http://www.bohemiancoding.com/sketch -->
    <title>[icon]/more/dark</title>
    <desc>Created with Sketch.</desc>
    <defs></defs>
    <g id="Symbols" stroke="none" stroke-width="1" fill="none" fill-rule="evenodd">
        <g id="[icon]/more/dark" fill="currentColor">
            <path d="M8,12 C8.527378,12 8.99255583,12.2014888 9.3955335,12.6044665 C9.79851117,13.0074442 10,13.472622 10,14 C10,14.527378 9.79851117,14.9925558 9.3955335,15.3955335 C8.99255583,15.7985112 8.527378,16 8,16 C7.472622,16 7.00744417,15.7985112 6.6044665,15.3955335 C6.20148883,14.9925558 6,14.527378 6,14 C6,13.472622 6.20148883,13.0074442 6.6044665,12.6044665 C7.00744417,12.2014888 7.472622,12 8,12 L8,12 Z M8,6 C8.527378,6 8.99255583,6.20148883 9.3955335,6.6044665 C9.79851117,7.00744417 10,7.472622 10,8 C10,8.527378 9.79851117,8.99255583 9.3955335,9.3955335 C8.99255583,9.79851117 8.527378,10 8,10 C7.472622,10 7.00744417,9.79851117 6.6044665,9.3955335 C6.20148883,8.99255583 6,8.527378 6,8 C6,7.472622 6.20148883,7.00744417 6.6044665,6.6044665 C7.00744417,6.20148883 7.472622,6 8,6 L8,6 Z M8,4 C7.472622,4 7.00744417,3.79851117 6.6044665,3.3955335 C6.20148883,2.99255583 6,2.527378 6,2 C6,1.472622 6.20148883,1.00744417 6.6044665,0.604466501 C7.00744417,0.201488834 7.472622,0 8,0 C8.527378,0 8.99255583,0.201488834 9.3955335,0.604466501 C9.79851117,1.00744417 10,1.472622 10,2 C10,2.527378 9.79851117,2.99255583 9.3955335,3.3955335 C8.99255583,3.79851117 8.527378,4 8,4 L8,4 Z" id="svg"></path>
        </g>
    </g>
</svg>