<svg width="144px" height="21px" viewBox="0 11 144 21" version="1.1" xmlns="http://www.w3.org/2000/svg" xmlns:xlink="http://www.w3.org/1999/xlink">
    <!-- Generator: Sketch 40.1 (33804) - http://www.bohemiancoding.com/sketch -->
    <desc>Created with Sketch.</desc>
    <defs></defs>
    <path d="M10.6181537,14.3688794 L10.6181537,31.703503 L11.8443971,31.703503 L11.8443971,12.1950842 L10.0050319,12.1950842 L5.93613315,29.4461003 L1.8393652,12.1950842 L0,12.1950842 L0,31.703503 L1.14263596,31.703503 L1.14263596,14.4246178 L5.26727308,31.6756338 L6.54925489,31.6756338 L10.6181537,14.3688794 Z M15.3559125,21.2246952 L15.3559125,13.3655893 L21.7658216,13.3655893 L21.7658216,12.1950842 L14.0739307,12.1950842 L14.0739307,31.703503 L21.7658216,31.703503 L21.7658216,30.5329979 L15.3559125,30.5329979 L15.3559125,22.3952003 L20.6789239,22.3952003 L20.6789239,21.2246952 L15.3559125,21.2246952 Z M23.8560093,12.1950842 L23.8560093,31.703503 L25.1379911,31.703503 L25.1379911,22.9804529 L27.1724405,22.9804529 C29.4019741,22.9804529 30.8233017,23.7050513 30.8233017,26.2968841 L30.8233017,29.3624927 C30.8233017,30.4215212 30.9069092,31.1182504 31.2413393,31.703503 L32.5790594,31.703503 C32.1610219,31.0625121 32.1052835,30.1706987 32.1052835,29.3624927 L32.1052835,26.3247532 C32.1052835,24.2066963 31.2970776,22.7853687 29.2904974,22.339462 C31.2134701,21.8935553 32.1052835,20.5837043 32.1052835,18.2984324 L32.1052835,16.598413 C32.1052835,13.8393652 30.9069092,12.1950842 27.9249081,12.1950842 L23.8560093,12.1950842 Z M25.1379911,21.8099477 L25.1379911,13.3655893 L27.8970389,13.3655893 C30.0150958,13.3655893 30.8233017,14.619702 30.8233017,16.7098897 L30.8233017,18.5492549 C30.8233017,21.1689568 29.4855816,21.8099477 27.2003097,21.8099477 L25.1379911,21.8099477 Z M42.026708,31.703503 L42.026708,30.5329979 L35.8954906,30.5329979 L35.8954906,12.1950842 L34.6135088,12.1950842 L34.6135088,31.703503 L42.026708,31.703503 Z M43.9496807,12.1950842 L43.9496807,31.703503 L45.2316625,31.703503 L45.2316625,12.1950842 L43.9496807,12.1950842 Z M48.6317012,14.3131411 L54.7350494,31.703503 L56.156377,31.703503 L56.156377,12.1950842 L54.9858719,12.1950842 L54.9858719,28.6657635 L49.1333462,12.1950842 L47.4611961,12.1950842 L47.4611961,31.703503 L48.6317012,31.703503 L48.6317012,14.3131411 Z M59.8629766,14.5360944 L59.8629766,12.1950842 L58.6367331,12.1950842 L58.6367331,14.6475711 L59.0547707,14.6475711 L58.4973873,16.765628 L59.0547707,16.765628 L59.8629766,14.5360944 Z M66.1614089,12.0278692 C63.2908845,12.0557383 62.0089027,13.9508419 62.0089027,16.8771047 C62.0089027,22.3115928 69.0598026,22.3952003 69.0598026,27.0772208 C69.0598026,29.1674086 68.2515967,30.6723437 66.1056706,30.6723437 C63.9597445,30.6723437 63.1515386,29.1674086 63.1515386,27.0772208 L63.1515386,25.9903232 L61.9252951,25.9903232 L61.9252951,26.9936133 C61.9252951,29.8083995 63.1515386,31.870718 66.1335398,31.870718 C69.1155409,31.870718 70.3417844,29.8083995 70.3417844,26.9936133 C70.3417844,21.6148636 63.2908845,21.531256 63.2908845,16.7934972 C63.2908845,14.7311786 64.0712212,13.1983743 66.1892781,13.1983743 C68.307335,13.1983743 69.0876718,14.7590478 69.0876718,16.8213664 L69.0876718,17.3230114 L70.3139152,17.3230114 L70.3139152,16.9049739 C70.3139152,14.0901877 69.1155409,12.0278692 66.1614089,12.0278692 L66.1614089,12.0278692 Z M76.7238243,12.1950842 L76.7238243,31.703503 L78.8976195,31.703503 L78.8976195,24.0116122 L80.8205922,24.0116122 C83.9140701,24.0116122 85.3632669,22.3952003 85.3632669,19.3017225 L85.3632669,16.9607122 C85.3632669,14.0065802 84.0534159,12.1950842 80.9878072,12.1950842 L76.7238243,12.1950842 Z M78.8976195,22.0607703 L78.8976195,14.1737952 L80.9878072,14.1737952 C82.5763499,14.1737952 83.2173408,15.0656087 83.2173408,16.8492355 L83.2173408,19.4410683 C83.2173408,21.3083027 82.4370041,22.0607703 80.8205922,22.0607703 L78.8976195,22.0607703 Z M86.9796787,26.9936133 C86.9796787,29.9477453 88.4567447,31.8985872 91.4387459,31.8985872 C94.4486162,31.8985872 95.9256822,29.9477453 95.9256822,26.9936133 L95.9256822,16.9049739 C95.9256822,13.9229727 94.4486162,12 91.4387459,12 C88.4567447,12 86.9796787,13.9229727 86.9796787,16.9049739 L86.9796787,26.9936133 Z M89.1256048,16.7934972 C89.1256048,15.0377395 89.8780724,13.9787111 91.4387459,13.9787111 C93.0272886,13.9787111 93.751887,15.0377395 93.751887,16.7934972 L93.751887,27.10509 C93.751887,28.8887169 93.0272886,29.9198761 91.4387459,29.9198761 C89.8780724,29.9198761 89.1256048,28.8887169 89.1256048,27.10509 L89.1256048,16.7934972 Z M103.004451,31.703503 L103.004451,14.1737952 L106.599574,14.1737952 L106.599574,12.1950842 L97.2355332,12.1950842 L97.2355332,14.1737952 L100.830656,14.1737952 L100.830656,31.703503 L103.004451,31.703503 Z M108.104509,12.1950842 L108.104509,31.703503 L110.278305,31.703503 L110.278305,12.1950842 L108.104509,12.1950842 Z M112.340623,26.9936133 C112.340623,29.9477453 113.817689,31.8985872 116.79969,31.8985872 C119.809561,31.8985872 121.286627,29.9477453 121.286627,26.9936133 L121.286627,16.9049739 C121.286627,13.9229727 119.809561,12 116.79969,12 C113.817689,12 112.340623,13.9229727 112.340623,16.9049739 L112.340623,26.9936133 Z M114.486549,16.7934972 C114.486549,15.0377395 115.239017,13.9787111 116.79969,13.9787111 C118.388233,13.9787111 119.112831,15.0377395 119.112831,16.7934972 L119.112831,27.10509 C119.112831,28.8887169 118.388233,29.9198761 116.79969,29.9198761 C115.239017,29.9198761 114.486549,28.8887169 114.486549,27.10509 L114.486549,16.7934972 Z M125.271918,15.9295529 L130.260499,31.703503 L132.517902,31.703503 L132.517902,12.1950842 L130.594929,12.1950842 L130.594929,26.2968841 L126.080124,12.1950842 L123.321076,12.1950842 L123.321076,31.703503 L125.271918,31.703503 L125.271918,15.9295529 Z M138.844204,12 C135.917941,12 134.524482,13.8672344 134.524482,16.8771047 C134.524482,22.3673311 141.045868,22.7853687 141.045868,27.1329592 C141.045868,28.8887169 140.32127,29.9198761 138.760596,29.9198761 C137.199923,29.9198761 136.475324,28.8887169 136.475324,27.1329592 L136.475324,25.9067157 L134.440875,25.9067157 L134.440875,27.0214825 C134.440875,29.9756145 135.834333,31.8985872 138.816334,31.8985872 C141.798336,31.8985872 143.219663,29.9756145 143.219663,27.0214825 C143.219663,21.531256 136.670408,21.1132185 136.670408,16.7377589 C136.670408,15.0098703 137.339268,13.9787111 138.899942,13.9787111 C140.460615,13.9787111 141.129476,15.0098703 141.129476,16.765628 L141.129476,17.4066189 L143.191794,17.4066189 L143.191794,16.8771047 C143.191794,13.9229727 141.798336,12 138.844204,12 L138.844204,12 Z" id="MERLIN’S-POTIONS" stroke="none" fill="#FFFFFF" fill-rule="evenodd"></path>
</svg>
