<?xml version="1.0" encoding="UTF-8"?>
<svg width="16px" height="16px" viewBox="0 0 16 16" version="1.1" xmlns="http://www.w3.org/2000/svg" xmlns:xlink="http://www.w3.org/1999/xlink">
    <!-- Generator: Sketch 41.2 (35397) - http://www.bohemiancoding.com/sketch -->
    <title>[icon]/payment/dark</title>
    <desc>Created with Sketch.</desc>
    <defs></defs>
    <g id="Symbols" stroke="none" stroke-width="1" fill="none" fill-rule="evenodd">
        <g id="[icon]/payment/dark" fill="currentColor">
            <path d="M1,4.0085302 L1,11.9914698 C1,12.5485158 1.44781571,13 1.99406028,13 L14.0059397,13 C14.5523144,13 15,12.5493378 15,11.9914698 L15,4.0085302 C15,3.45148424 14.5521843,3 14.0059397,3 L1.99406028,3 C1.44768556,3 1,3.45066217 1,4.0085302 Z M0,4.0085302 C0,2.8992496 0.894513756,2 1.99406028,2 L14.0059397,2 C15.1072288,2 16,2.90195036 16,4.0085302 L16,11.9914698 C16,13.1007504 15.1054862,14 14.0059397,14 L1.99406028,14 C0.892771196,14 0,13.0980496 0,11.9914698 L0,4.0085302 Z" id="Rectangle-2"></path>
            <rect id="Rectangle-4" x="0" y="5" width="16" height="3"></rect>
        </g>
    </g>
</svg>