<svg width="20px" height="20px" viewBox="0 0 20 20" xmlns="http://www.w3.org/2000/svg">
    <g stroke="none" stroke-width="1" fill-rule="evenodd">
        <g>
            <path d="M6.12,6.78 L7.38,6.8 C7.46,5.32 8.4,4.58 9.88,4.58 C11.32,4.58 12.34,5.26 12.34,6.64 C12.34,9.4 9.36,9.28 9.36,12.6 L10.6,12.6 C10.6,9.68 13.8,9.7 13.8,6.44 C13.8,4.3 12.22,3.22 10.02,3.22 C7.72,3.22 6.22,4.5 6.12,6.78 L6.12,6.78 Z M9.96,15.12 C9.4,15.12 8.98,15.56 8.98,16.14 C8.98,16.72 9.4,17.16 9.96,17.16 C10.5,17.16 10.92,16.72 10.92,16.14 C10.92,15.56 10.5,15.12 9.96,15.12 L9.96,15.12 Z"></path>
        </g>
    </g>
</svg>
