<svg xmlns="http://www.w3.org/2000/svg" width="17" height="24" viewBox="0 0 17 24">
  <path fill="#EC5D76" fill-rule="evenodd" d="M14.1723798,10.6046512 L14.1723798,10.0465116 L14.1723798,5.72609819 C14.1723798,2.56330749 11.5649984,0 8.34782609,0 C5.13065382,0 2.52327237,2.56330749 2.52327237,5.72609819 L2.52327237,10.0465116 L2.52327237,10.6046512 C2.52327237,13.7674419 5.13065382,16.3514212 8.34782609,16.3514212 C11.5649984,16.3514212 14.1723798,13.7674419 14.1723798,10.6046512 Z M16.6956522,10.6046512 C16.6956522,10.129199 16.3171613,9.75710594 15.8335341,9.75710594 C15.3499069,9.75710594 14.9714161,10.129199 14.9714161,10.6046512 C14.9714161,14.2015504 12.006571,17.1162791 8.34782609,17.1162791 C4.68908115,17.1162791 1.72423612,14.2015504 1.72423612,10.6046512 C1.72423612,10.129199 1.34574526,9.75710594 0.862118059,9.75710594 C0.378490855,9.75710594 0,10.129199 0,10.6046512 C0,14.8423773 3.28025408,18.3359173 7.48570803,18.7700258 L7.48570803,22.3049096 L2.67046326,22.3049096 C2.18683605,22.3049096 1.8083452,22.6770026 1.8083452,23.1524548 C1.8083452,23.627907 2.18683605,24 2.67046326,24 L13.6677253,24 C14.1513525,24 14.5298434,23.627907 14.5298434,23.1524548 C14.5298434,22.6770026 14.1513525,22.3049096 13.6677253,22.3049096 L9.20994415,22.3049096 L9.20994415,18.7700258 C13.4153981,18.3359173 16.6956522,14.8423773 16.6956522,10.6046512 L16.6956522,10.6046512 Z"/>
</svg>
