<svg xmlns="http://www.w3.org/2000/svg" width="17" height="24" viewBox="0 0 17 24">
  <path fill="#4E439B" fill-rule="evenodd" d="M30.1723798,541.604651 L30.1723798,541.046512 L30.1723798,536.726098 C30.1723798,533.563307 27.5649984,531 24.3478261,531 C21.1306538,531 18.5232724,533.563307 18.5232724,536.726098 L18.5232724,541.046512 L18.5232724,541.604651 C18.5232724,544.767442 21.1306538,547.351421 24.3478261,547.351421 C27.5649984,547.351421 30.1723798,544.767442 30.1723798,541.604651 Z M20.2475085,536.726098 C20.2475085,534.49354 22.0979082,532.674419 24.3688534,532.674419 C26.6397985,532.674419 28.4901982,534.49354 28.4901982,536.726098 L28.4901982,541.046512 C28.4901982,543.27907 26.6397985,545.098191 24.3688534,545.098191 C22.0979082,545.098191 20.2475085,543.27907 20.2475085,541.046512 L20.2475085,536.726098 L20.2475085,536.726098 Z M32.6956522,541.604651 C32.6956522,541.129199 32.3171613,540.757106 31.8335341,540.757106 C31.3499069,540.757106 30.9714161,541.129199 30.9714161,541.604651 C30.9714161,545.20155 28.006571,548.116279 24.3478261,548.116279 C20.6890812,548.116279 17.7242361,545.20155 17.7242361,541.604651 C17.7242361,541.129199 17.3457453,540.757106 16.8621181,540.757106 C16.3784909,540.757106 16,541.129199 16,541.604651 C16,545.842377 19.2802541,549.335917 23.485708,549.770026 L23.485708,553.30491 L18.6704633,553.30491 C18.1868361,553.30491 17.8083452,553.677003 17.8083452,554.152455 C17.8083452,554.627907 18.1868361,555 18.6704633,555 L29.6677253,555 C30.1513525,555 30.5298434,554.627907 30.5298434,554.152455 C30.5298434,553.677003 30.1513525,553.30491 29.6677253,553.30491 L25.2099441,553.30491 L25.2099441,549.770026 C29.4153981,549.335917 32.6956522,545.842377 32.6956522,541.604651 L32.6956522,541.604651 Z" transform="translate(-16 -531)"/>
</svg>
