<svg width="20px" height="20px" viewBox="0 0 20 20" xmlns="http://www.w3.org/2000/svg">
    <g stroke="none" stroke-width="1" fill-rule="evenodd">
        <g>
            <g transform="translate(2.000000, 2.000000)">
                <g>
                    <path d="M11.1985185,9.94162963 C11.9771852,8.90251852 12.4444444,7.61748148 12.4444444,6.22222222 C12.4444444,2.79111111 9.65333333,0 6.22222222,0 C2.79111111,0 0,2.79111111 0,6.22222222 C0,9.65333333 2.79111111,12.4444444 6.22222222,12.4444444 C7.61748148,12.4444444 8.90251852,11.9771852 9.94162963,11.1985185 L14.6325926,15.8894815 L15.8894815,14.6325926 L11.1985185,9.94162963 Z M6.22222222,0.592592593 C9.32651852,0.592592593 11.8518519,3.11792593 11.8518519,6.22222222 C11.8518519,9.32651852 9.32651852,11.8518519 6.22222222,11.8518519 C3.11792593,11.8518519 0.592592593,9.32651852 0.592592593,6.22222222 C0.592592593,3.11792593 3.11792593,0.592592593 6.22222222,0.592592593 Z M10.6939259,10.5386667 C10.7371852,10.4939259 10.784,10.4527407 10.8257778,10.4068148 L15.0515556,14.6325926 L14.6322963,15.0518519 L10.4068148,10.8257778 C10.4527407,10.784 10.4936296,10.7371852 10.5383704,10.6942222 C10.5911111,10.6432593 10.642963,10.5914074 10.6939259,10.5386667 Z"></path>
                </g>
            </g>
        </g>
    </g>
</svg>
