<?xml version="1.0" encoding="UTF-8"?>
<svg width="16px" height="16px" viewBox="0 0 16 16" version="1.1" xmlns="http://www.w3.org/2000/svg" xmlns:xlink="http://www.w3.org/1999/xlink">
    <!-- Generator: Sketch 41.2 (35397) - http://www.bohemiancoding.com/sketch -->
    <title>[icon]/search/dark</title>
    <desc>Created with Sketch.</desc>
    <defs></defs>
    <g id="Symbols" stroke="none" stroke-width="1" fill="none" fill-rule="evenodd">
        <g id="[icon]/search/dark" fill="currentColor">
            <path d="M11.2764093,10.0107782 C12.0604919,8.96443955 12.5310012,7.6704645 12.5310012,6.26550059 C12.5310012,2.81052455 9.72047663,0 6.26550059,0 C2.81052455,0 0,2.81052455 0,6.26550059 C0,9.72047663 2.81052455,12.5310012 6.26550059,12.5310012 C7.6704645,12.5310012 8.96443955,12.0604919 10.0107782,11.2764093 L14.7343689,16 L16,14.7343689 L11.2764093,10.0107782 Z M6.26550059,0.596714342 C9.39138867,0.596714342 11.9342868,3.13961251 11.9342868,6.26550059 C11.9342868,9.39138867 9.39138867,11.9342868 6.26550059,11.9342868 C3.13961251,11.9342868 0.596714342,9.39138867 0.596714342,6.26550059 C0.596714342,3.13961251 3.13961251,0.596714342 6.26550059,0.596714342 Z M10.768307,10.6119679 C10.8118672,10.5669159 10.8590076,10.5254443 10.901076,10.4791989 L15.1562459,14.7343689 L14.7340705,15.1565443 L10.4791989,10.901076 C10.5254443,10.8590076 10.5666176,10.8118672 10.6116695,10.7686054 C10.6647771,10.7172879 10.7169896,10.6650754 10.768307,10.6119679 Z" id="Shape"></path>
        </g>
    </g>
</svg>