<?xml version="1.0" encoding="UTF-8"?>
<svg width="16px" height="16px" viewBox="0 0 16 16" version="1.1" xmlns="http://www.w3.org/2000/svg" xmlns:xlink="http://www.w3.org/1999/xlink">
    <!-- Generator: Sketch 41.2 (35397) - http://www.bohemiancoding.com/sketch -->
    <title>[icon]/shipping/dark</title>
    <desc>Created with Sketch.</desc>
    <defs></defs>
    <g id="Symbols" stroke="none" stroke-width="1" fill="none" fill-rule="evenodd">
        <g id="[icon]/shipping/dark" fill="currentColor">
            <g id="Group-2">
                <path d="M12.6145797,1.37340869 C12.5028124,1.19797509 12.1419783,1 11.9296736,1 L4.27821217,1 C4.06318381,1 3.66905364,1.20967166 3.54793227,1.38768628 L1,5.13243569 L1,14.3833333 C1,14.4256755 1.026976,14.4575562 1.05523783,14.4621229 C3.32485141,14.8187764 5.6725203,15 8,15 C10.3213692,15 12.6530514,14.8196942 14.9407676,14.4627589 C14.973024,14.4575562 15,14.4256755 15,14.3833333 L15,5.11764225 L12.6145797,1.37340869 Z M15.9833333,4.8 C15.9833333,4.85 16,4.91666667 16,4.96666667 L16,14.3833333 C16,14.9166667 15.6166667,15.3666667 15.1,15.45 C12.75,15.8166667 10.3666667,16 8,16 C5.63333333,16 3.23333333,15.8166667 0.9,15.45 C0.383333333,15.3666667 0,14.9166667 0,14.3833333 L0,4.96666667 C0,4.91666667 0,4.85 0.0166666667,4.8 L2.72116006,0.825149417 C3.02632103,0.376647949 3.72834676,0 4.27821217,0 L11.9296736,0 C12.4859095,0 13.1637774,0.374333016 13.4579629,0.836096191 L15.9833333,4.8 Z" id="Path"></path>
                <polygon id="Path-2" points="7.1712886 0.00048828125 6 5.39215644 6 9.64892578 10 9.64818573 10 5.3807373 8.91015659 0"></polygon>
                <rect id="Rectangle-6" x="0" y="5" width="16" height="1"></rect>
            </g>
        </g>
    </g>
</svg>