<?xml version="1.0" encoding="UTF-8"?>
<svg width="16px" height="16px" viewBox="0 0 16 16" version="1.1" xmlns="http://www.w3.org/2000/svg" xmlns:xlink="http://www.w3.org/1999/xlink">
    <!-- Generator: Sketch 41.2 (35397) - http://www.bohemiancoding.com/sketch -->
    <title>[icon]/shipping/black</title>
    <desc>Created with Sketch.</desc>
    <defs></defs>
    <g id="Symbols" stroke="none" stroke-width="1" fill="none" fill-rule="evenodd">
        <g id="[icon]/shipping/black" fill="#333333">
            <path d="M6.08519226,5 L0,5 L0,6 L6,6 L6,9.64892578 L10,9.64818573 L10,6 L16,6 L16,5 L9.92288342,5 L8.91015659,0 L7.1712886,0.00048828125 L6.08519226,5 Z M15.9833333,4.8 L13.4579629,0.836096191 C13.1637774,0.374333016 12.4859095,0 11.9296736,0 L4.27821217,0 C3.72834676,0 3.02632103,0.376647949 2.72116006,0.825149417 L0.0166666667,4.8 C0,4.85 0,4.91666667 0,4.96666667 L0,14.3833333 C0,14.9166667 0.383333333,15.3666667 0.9,15.45 C3.23333333,15.8166667 5.63333333,16 8,16 C10.3666667,16 12.75,15.8166667 15.1,15.45 C15.6166667,15.3666667 16,14.9166667 16,14.3833333 L16,4.96666667 C16,4.91666667 15.9833333,4.85 15.9833333,4.8 Z" id="Combined-Shape"></path>
        </g>
    </g>
</svg>