<svg width="20px" height="20px" viewBox="0 0 20 20" xmlns="http://www.w3.org/2000/svg">
    <g stroke="none" stroke-width="1" fill-rule="evenodd">
        <g>
            <g transform="translate(2.000000, 3.000000)">
                <g>
                    <g>
                        <path d="M11.3534694,7.96190476 L9.18204082,7.96190476 C8.5877551,7.96190476 8.1044898,8.4681827 8.1044898,9.09076774 L8.1044898,10.8353741 C8.1044898,11.4579592 8.5877551,11.9642371 9.18204082,11.9642371 L11.3534694,11.9642371 C11.9477551,11.9642371 12.4310204,11.4579592 12.4310204,10.8353741 L12.4310204,9.09076774 C12.4310204,8.4681827 11.9477551,7.96190476 11.3534694,7.96190476 L11.3534694,7.96190476 Z M11.6473469,10.8353741 C11.6473469,11.006414 11.5134694,11.1432459 11.3534694,11.1432459 L9.18204082,11.1432459 C9.01877551,11.1432459 8.88816327,11.0029932 8.88816327,10.8353741 L8.88816327,9.09076774 C8.88816327,8.91972789 9.02204082,8.78289602 9.18204082,8.78289602 L11.3534694,8.78289602 C11.5167347,8.78289602 11.6473469,8.92314869 11.6473469,9.09076774 L11.6473469,10.8353741 L11.6473469,10.8353741 Z"></path>
                        <path d="M15.9804082,4.79082604 C15.9804082,4.71898931 15.9640816,4.65057337 15.9281633,4.58899903 L13.5510204,0.210379009 C13.482449,0.0838095238 13.3518367,0.00171039845 13.2114286,0.00171039845 L2.76571429,0.00171039845 C2.62530612,0.00171039845 2.49469388,0.0803887269 2.42612245,0.210379009 L0.052244898,4.58899903 C0.0195918367,4.65057337 -1.88511338e-16,4.71898931 -1.88511338e-16,4.79082604 C-1.88511338e-16,5.77259475 0.564897959,6.61411079 1.37142857,6.98697765 L1.37142857,14.2082799 C1.37142857,14.4340525 1.5477551,14.6187755 1.76326531,14.6187755 L3.92816327,14.6187755 L3.93795918,14.6187755 L6.97469388,14.6187755 L6.9844898,14.6187755 L14.2138776,14.6187755 C14.4293878,14.6187755 14.6057143,14.4340525 14.6057143,14.2082799 L14.6057143,7.0382896 C14.6057143,7.02118562 14.6057143,7.00750243 14.602449,6.99381924 C15.4122449,6.62095238 15.9804082,5.77601555 15.9804082,4.79082604 L15.9804082,4.79082604 Z M2.99428571,0.826122449 L12.9828571,0.826122449 L14.8408163,4.25034014 L1.13959184,4.25034014 L2.99428571,0.826122449 L2.99428571,0.826122449 Z M11.3730612,5.06791059 C11.2489796,5.80680272 10.6318367,6.36781341 9.89061224,6.36781341 C9.14938776,6.36781341 8.5322449,5.80680272 8.40816327,5.06791059 L11.3730612,5.06791059 L11.3730612,5.06791059 Z M7.5755102,5.06791059 C7.45142857,5.80680272 6.83428571,6.36781341 6.09306122,6.36781341 C5.35183673,6.36781341 4.73469388,5.80680272 4.60734694,5.06791059 L7.5755102,5.06791059 L7.5755102,5.06791059 Z M0.809795918,5.06791059 L3.77795918,5.06791059 C3.65387755,5.80680272 3.03346939,6.36781341 2.2922449,6.36781341 C1.55102041,6.37123421 0.933877551,5.80680272 0.809795918,5.06791059 L0.809795918,5.06791059 Z M6.58285714,13.7977843 L4.32979592,13.7977843 L4.32979592,9.36785228 C4.32979592,9.04629738 4.57795918,8.78289602 4.88816327,8.78289602 L6.0277551,8.78289602 C6.33469388,8.78289602 6.58612245,9.04287658 6.58612245,9.36785228 L6.58612245,13.7977843 L6.58285714,13.7977843 L6.58285714,13.7977843 Z M13.8220408,13.7977843 L7.36653061,13.7977843 L7.36653061,9.36785228 C7.36653061,8.59475219 6.76571429,7.96190476 6.0244898,7.96190476 L4.88489796,7.96190476 C4.14693878,7.96190476 3.54285714,8.59133139 3.54285714,9.36785228 L3.54285714,13.8012051 L2.15510204,13.8012051 L2.15510204,7.18880466 C2.20081633,7.19222546 2.24653061,7.19222546 2.2922449,7.19222546 C3.08244898,7.19222546 3.78122449,6.77146744 4.19265306,6.13177843 C4.60408163,6.77146744 5.30285714,7.19222546 6.09306122,7.19222546 C6.88326531,7.19222546 7.57877551,6.77146744 7.99346939,6.13177843 C8.40489796,6.77146744 9.10367347,7.19222546 9.89061224,7.19222546 C10.6808163,7.19222546 11.3763265,6.77146744 11.7877551,6.13177843 C12.1991837,6.77146744 12.8979592,7.19222546 13.6881633,7.19222546 C13.7338776,7.19222546 13.7763265,7.18880466 13.8220408,7.18880466 L13.8220408,13.7977843 L13.8220408,13.7977843 L13.8220408,13.7977843 Z M13.6881633,6.37123421 C12.9469388,6.37123421 12.3297959,5.81022352 12.2057143,5.07133139 L15.1738776,5.07133139 C15.0465306,5.80680272 14.4293878,6.37123421 13.6881633,6.37123421 L13.6881633,6.37123421 Z"></path>
                    </g>
                </g>
            </g>
        </g>
    </g>
</svg>
