<?xml version="1.0" encoding="UTF-8"?>
<svg width="16px" height="16px" viewBox="0 0 16 16" version="1.1" xmlns="http://www.w3.org/2000/svg" xmlns:xlink="http://www.w3.org/1999/xlink">
    <!-- Generator: Sketch 41.2 (35397) - http://www.bohemiancoding.com/sketch -->
    <title>[icon]/store/dark</title>
    <desc>Created with Sketch.</desc>
    <defs></defs>
    <g id="Symbols" stroke="none" stroke-width="1" fill="none" fill-rule="evenodd">
        <g id="[icon]/store/dark" fill="currentColor">
            <path d="M11.3534694,8.96190476 L9.18204082,8.96190476 C8.5877551,8.96190476 8.1044898,9.4681827 8.1044898,10.0907677 L8.1044898,11.8353741 C8.1044898,12.4579592 8.5877551,12.9642371 9.18204082,12.9642371 L11.3534694,12.9642371 C11.9477551,12.9642371 12.4310204,12.4579592 12.4310204,11.8353741 L12.4310204,10.0907677 C12.4310204,9.4681827 11.9477551,8.96190476 11.3534694,8.96190476 L11.3534694,8.96190476 Z M11.6473469,11.8353741 C11.6473469,12.006414 11.5134694,12.1432459 11.3534694,12.1432459 L9.18204082,12.1432459 C9.01877551,12.1432459 8.88816327,12.0029932 8.88816327,11.8353741 L8.88816327,10.0907677 C8.88816327,9.91972789 9.02204082,9.78289602 9.18204082,9.78289602 L11.3534694,9.78289602 C11.5167347,9.78289602 11.6473469,9.92314869 11.6473469,10.0907677 L11.6473469,11.8353741 L11.6473469,11.8353741 Z" id="Shape"></path>
            <path d="M15.9804082,5.79082604 C15.9804082,5.71898931 15.9640816,5.65057337 15.9281633,5.58899903 L13.5510204,1.21037901 C13.482449,1.08380952 13.3518367,1.0017104 13.2114286,1.0017104 L2.76571429,1.0017104 C2.62530612,1.0017104 2.49469388,1.08038873 2.42612245,1.21037901 L0.052244898,5.58899903 C0.0195918367,5.65057337 0,5.71898931 0,5.79082604 C0,6.77259475 0.564897959,7.61411079 1.37142857,7.98697765 L1.37142857,15.2082799 C1.37142857,15.4340525 1.5477551,15.6187755 1.76326531,15.6187755 L3.92816327,15.6187755 L3.93795918,15.6187755 L6.97469388,15.6187755 L6.9844898,15.6187755 L14.2138776,15.6187755 C14.4293878,15.6187755 14.6057143,15.4340525 14.6057143,15.2082799 L14.6057143,8.0382896 C14.6057143,8.02118562 14.6057143,8.00750243 14.602449,7.99381924 C15.4122449,7.62095238 15.9804082,6.77601555 15.9804082,5.79082604 L15.9804082,5.79082604 Z M2.99428571,1.82612245 L12.9828571,1.82612245 L14.8408163,5.25034014 L1.13959184,5.25034014 L2.99428571,1.82612245 L2.99428571,1.82612245 Z M11.3730612,6.06791059 C11.2489796,6.80680272 10.6318367,7.36781341 9.89061224,7.36781341 C9.14938776,7.36781341 8.5322449,6.80680272 8.40816327,6.06791059 L11.3730612,6.06791059 L11.3730612,6.06791059 Z M7.5755102,6.06791059 C7.45142857,6.80680272 6.83428571,7.36781341 6.09306122,7.36781341 C5.35183673,7.36781341 4.73469388,6.80680272 4.60734694,6.06791059 L7.5755102,6.06791059 L7.5755102,6.06791059 Z M0.809795918,6.06791059 L3.77795918,6.06791059 C3.65387755,6.80680272 3.03346939,7.36781341 2.2922449,7.36781341 C1.55102041,7.37123421 0.933877551,6.80680272 0.809795918,6.06791059 L0.809795918,6.06791059 Z M6.58285714,14.7977843 L4.32979592,14.7977843 L4.32979592,10.3678523 C4.32979592,10.0462974 4.57795918,9.78289602 4.88816327,9.78289602 L6.0277551,9.78289602 C6.33469388,9.78289602 6.58612245,10.0428766 6.58612245,10.3678523 L6.58612245,14.7977843 L6.58285714,14.7977843 L6.58285714,14.7977843 Z M13.8220408,14.7977843 L7.36653061,14.7977843 L7.36653061,10.3678523 C7.36653061,9.59475219 6.76571429,8.96190476 6.0244898,8.96190476 L4.88489796,8.96190476 C4.14693878,8.96190476 3.54285714,9.59133139 3.54285714,10.3678523 L3.54285714,14.8012051 L2.15510204,14.8012051 L2.15510204,8.18880466 C2.20081633,8.19222546 2.24653061,8.19222546 2.2922449,8.19222546 C3.08244898,8.19222546 3.78122449,7.77146744 4.19265306,7.13177843 C4.60408163,7.77146744 5.30285714,8.19222546 6.09306122,8.19222546 C6.88326531,8.19222546 7.57877551,7.77146744 7.99346939,7.13177843 C8.40489796,7.77146744 9.10367347,8.19222546 9.89061224,8.19222546 C10.6808163,8.19222546 11.3763265,7.77146744 11.7877551,7.13177843 C12.1991837,7.77146744 12.8979592,8.19222546 13.6881633,8.19222546 C13.7338776,8.19222546 13.7763265,8.18880466 13.8220408,8.18880466 L13.8220408,14.7977843 L13.8220408,14.7977843 L13.8220408,14.7977843 Z M13.6881633,7.37123421 C12.9469388,7.37123421 12.3297959,6.81022352 12.2057143,6.07133139 L15.1738776,6.07133139 C15.0465306,6.80680272 14.4293878,7.37123421 13.6881633,7.37123421 L13.6881633,7.37123421 Z" id="Shape"></path>
        </g>
    </g>
</svg>