<svg width="20px" height="20px" viewBox="0 0 20 20" xmlns="http://www.w3.org/2000/svg">
    <g stroke="none" stroke-width="1" fill-rule="evenodd" style="fill: transparent;">
        <g style="stroke: currentColor;">
            <path d="M18,17.668644 C18,17.7602248 17.9733278,17.8384848 17.9216503,17.9034239 C17.8566368,17.968363 17.7782871,18 17.6882684,18 L2.33340279,18 C2.24171702,18 2.16336737,17.968363 2.09835382,17.9034239 C2.03334028,17.8384848 2,17.7602248 2,17.668644 L2,17.0059319 C2,16.1467374 2.39174828,15.4640441 3.17191081,14.9561869 C3.62867264,14.6831096 4.26047093,14.3833906 5.06730569,14.058695 C5.87580746,13.7473202 6.4542613,13.4992195 6.80600125,13.317723 C7.60116691,12.9147674 7.99791623,12.3669477 7.99791623,11.6775939 C7.35944989,11.0282027 6.82600542,10.0457904 6.39591582,8.73202206 C6.13586164,7.89946925 6.00583455,6.96201478 6.00583455,5.92132376 C6.00583455,4.868977 6.39591582,3.9515038 7.17774536,3.17056926 C7.95957491,2.38963472 8.89643676,2 9.98999792,2 C11.0968952,2 12.0420921,2.38963472 12.8239217,3.17056926 C13.6174203,3.9515038 14.0141696,4.89395359 14.0141696,5.99958372 C14.0141696,6.67561661 13.942488,7.33999376 13.7991248,7.99105006 C13.5657429,9.03174108 13.2006668,9.94088875 12.7055637,10.7218233 C12.4321734,11.1647414 12.1987914,11.4761161 12.0020838,11.6592778 C12.0020838,12.3486315 12.4005001,12.9014466 13.1939987,13.317723 C13.5457387,13.4992195 13.93582,13.6757207 14.3659096,13.8438963 C15.5261513,14.2868144 16.3396541,14.6564679 16.808085,14.9561869 C17.6032507,15.4507233 18,16.1334166 18,17.0059319 L18,17.668644 Z"></path>
        </g>
    </g>
</svg>
