<?xml version="1.0" encoding="UTF-8"?>
<svg width="16px" height="16px" viewBox="0 0 16 16" version="1.1" xmlns="http://www.w3.org/2000/svg" xmlns:xlink="http://www.w3.org/1999/xlink">
    <!-- Generator: Sketch 41.2 (35397) - http://www.bohemiancoding.com/sketch -->
    <title>[icon]/user/dark</title>
    <desc>Created with Sketch.</desc>
    <defs></defs>
    <g id="Symbols" stroke="none" stroke-width="1" fill="none" fill-rule="evenodd">
        <g id="[icon]/user/dark" fill="currentColor">
            <path d="M14.2691293,13.798521 C13.8742839,13.5458847 13.11471,13.2001362 12.0017361,12.7752275 C11.5486854,12.5980735 11.1261585,12.4079964 10.7294364,12.2032634 C9.62906699,11.6259999 9.00208377,10.7542173 9.00208377,9.65927776 L9.00208377,9.22402654 L9.32062535,8.92742093 C9.43820846,8.81793503 9.62370772,8.57066603 9.86099461,8.18637663 C10.2932409,7.50458729 10.6148373,6.7020672 10.8225215,5.77600111 C10.9502287,5.19604393 11.0141696,4.60378178 11.0141696,3.99958372 C11.0141696,3.16272713 10.7255416,2.47680898 10.11722,1.87808089 C9.52362,1.28516047 8.8329053,1 7.98999792,1 C7.16186419,1 6.47905631,1.28415232 5.88444706,1.87808089 C5.28853891,2.47330687 5.00583455,3.13721802 5.00583455,3.92132376 C5.00583455,4.86521984 5.12204567,5.70269344 5.34628534,6.42089868 C5.73271568,7.60130372 6.19505607,8.4517428 6.71099572,8.97651073 L6.99791623,9.26834076 L6.99791623,9.67759392 C6.99791623,10.7777752 6.36578317,11.6483649 5.26455103,12.2063917 C4.86702096,12.4115157 4.25200458,12.6740348 3.44063999,12.9863919 C2.68111794,13.2920473 2.0925172,13.570886 1.7174666,13.7942614 C1.2149723,14.1213668 1.00165449,14.491998 1.00000959,15 L14.9999907,15 C14.9983764,14.4836603 14.7855739,14.119809 14.2691293,13.798521 Z M16,15.668644 C16,15.7602248 15.9733278,15.8384848 15.9216503,15.9034239 C15.8566368,15.968363 15.7782871,16 15.6882684,16 L0.333402792,16 C0.241717024,16 0.163367368,15.968363 0.0983538237,15.9034239 C0.0333402792,15.8384848 0,15.7602248 0,15.668644 L0,15.0059319 C0,14.1467374 0.391748281,13.4640441 1.17191081,12.9561869 C1.62867264,12.6831096 2.26047093,12.3833906 3.06730569,12.058695 C3.87580746,11.7473202 4.4542613,11.4992195 4.80600125,11.317723 C5.60116691,10.9147674 5.99791623,10.3669477 5.99791623,9.67759392 C5.35944989,9.02820273 4.82600542,8.0457904 4.39591582,6.73202206 C4.13586164,5.89946925 4.00583455,4.96201478 4.00583455,3.92132376 C4.00583455,2.868977 4.39591582,1.9515038 5.17774536,1.17056926 C5.95957491,0.389634717 6.89643676,0 7.98999792,0 C9.09689519,0 10.0420921,0.389634717 10.8239217,1.17056926 C11.6174203,1.9515038 12.0141696,2.89395359 12.0141696,3.99958372 C12.0141696,4.67561661 11.942488,5.33999376 11.7991248,5.99105006 C11.5657429,7.03174108 11.2006668,7.94088875 10.7055637,8.72182329 C10.4321734,9.16474139 10.1987914,9.47611614 10.0020838,9.65927776 C10.0020838,10.3486315 10.4005001,10.9014466 11.1939987,11.317723 C11.5457387,11.4992195 11.93582,11.6757207 12.3659096,11.8438963 C13.5261513,12.2868144 14.3396541,12.6564679 14.808085,12.9561869 C15.6032507,13.4507233 16,14.1334166 16,15.0059319 L16,15.668644 Z" id="Tab-Account-icon-inactive"></path>
        </g>
    </g>
</svg>