<?xml version="1.0" encoding="utf-8"?><svg xmlns="http://www.w3.org/2000/svg" xmlns:xlink="http://www.w3.org/1999/xlink"><symbol viewBox="0 0 20 20" id="shoppicon-alert"><g transform="translate(2 2)" fill-rule="evenodd"><path d="M7.044 15.537c.27.271.585.402.952.402.375 0 .685-.135.942-.402a1.31 1.31 0 0 0 .393-.942h-2.68c0 .366.131.68.393.942zM15.913 13.364a10.963 10.963 0 0 1-1.414-2.95c-.319-1.038-.602-2.54-.856-4.505-.147-1.143-.616-2.108-1.135-2.732a4.946 4.946 0 0 0-.89-.838 5.464 5.464 0 0 0-1.833-.899A1.74 1.74 0 0 0 9.148.42a1.788 1.788 0 0 0-1.152-.41c-.428 0-.812.14-1.144.41-.332.27-.541.611-.628 1.021a5.474 5.474 0 0 0-1.842.9 4.967 4.967 0 0 0-.89.837c-.516.62-.979 1.589-1.126 2.732-.254 1.964-.546 3.464-.865 4.504a11.102 11.102 0 0 1-1.405 2.95.435.435 0 0 0-.035.498.464.464 0 0 0 .428.254h15.03a.466.466 0 0 0 .481-.49.453.453 0 0 0-.087-.261zm-14.551-.218c.523-.9.92-1.887 1.196-2.942.275-1.057.525-2.454.768-4.172.21-1.494.89-2.433 1.737-2.994a4.85 4.85 0 0 1 1.72-.742.465.465 0 0 0 .357-.463v-.017c0-.464.393-.838.856-.838.48 0 .855.375.855.838v.017c0 .218.155.409.375.463.601.147 1.124.335 1.711.742.295.204.556.43.777.69.45.526.828 1.335.96 2.304.235 1.72.49 3.107.768 4.163.28 1.056.681 2.043 1.205 2.95H1.362z"/></g></symbol><symbol viewBox="0 0 20 20" id="shoppicon-back"><path d="M12 2.929l.884.884L6.697 10l6.187 6.187-.884.884L4.929 10z" fill-rule="evenodd"/></symbol><symbol viewBox="0 0 20 20" id="shoppicon-caret"><path d="M8 16V4l6 6z" fill-rule="evenodd"/></symbol><symbol viewBox="0 0 20 20" id="shoppicon-cart"><g transform="translate(4 2)" fill-rule="evenodd"><path d="M11.788 16H.334a.242.242 0 0 1-.243-.254L.637 4.29a.242.242 0 0 1 .242-.23h10.364c.13 0 .236.1.242.23l.546 11.455a.242.242 0 0 1-.243.254zm-11.2-.485h10.946l-.523-10.97H1.11l-.522 10.97z"/><path d="M8.681 5.515a.243.243 0 0 1-.242-.242v-2.41A2.381 2.381 0 0 0 6.06.485a2.381 2.381 0 0 0-2.379 2.378v2.41a.243.243 0 0 1-.484 0v-2.41A2.866 2.866 0 0 1 6.06 0a2.866 2.866 0 0 1 2.863 2.863v2.41a.242.242 0 0 1-.243.242z"/></g></symbol><symbol viewBox="0 0 20 20" id="shoppicon-caution"><path d="M10 3l8 14H2l8-14zm.76 10H9.24L9 7h2l-.24 6zM9 15c0-.292.095-.532.286-.719A.978.978 0 0 1 10 14c.285 0 .523.094.714.281.19.187.286.427.286.719a.964.964 0 0 1-.286.719A.978.978 0 0 1 10 16a.978.978 0 0 1-.714-.281A.964.964 0 0 1 9 15z" fill-rule="evenodd"/></symbol><symbol viewBox="0 0 20 20" id="shoppicon-check"><path d="M17.16 5.02L7.748 14.43 2.834 9.517 2 10.35l5.748 5.748L17.993 5.854z" fill-rule="evenodd"/></symbol><symbol viewBox="0 0 20 20" id="shoppicon-chevron-right"><title>icon/chevron-right</title><path d="M8 17.071l-.884-.884L13.303 10 7.116 3.813 8 2.929 15.071 10z" fill="#4E439B" fill-rule="evenodd"/></symbol><symbol viewBox="0 0 20 20" id="shoppicon-close"><g transform="rotate(-45 11.414 7.086)" fill-rule="evenodd"><path d="M0 7h16v2H0z"/><path d="M6.985 16.089v-16h2v16z"/></g></symbol><symbol viewBox="-1 -1 26 26" id="shoppicon-icon-account"><path d="M24 23.503c0 .137-.04.255-.118.352a.478.478 0 0 1-.35.145H.5a.48.48 0 0 1-.352-.145.48.48 0 0 1-.148-.352v-.994c0-1.289.588-2.313 1.758-3.075.685-.41 1.633-.859 2.843-1.346 1.213-.467 2.08-.84 2.608-1.111 1.193-.605 1.788-1.427 1.788-2.46-.958-.975-1.758-2.448-2.403-4.419-.39-1.249-.585-2.655-.585-4.216 0-1.579.585-2.955 1.758-4.126C8.939.584 10.345 0 11.985 0c1.66 0 3.078.584 4.25 1.756 1.191 1.171 1.786 2.585 1.786 4.243 0 1.014-.107 2.011-.322 2.988-.35 1.56-.898 2.924-1.64 4.096-.41.664-.76 1.131-1.056 1.406 0 1.034.598 1.863 1.788 2.488.528.272 1.113.537 1.758.789 1.74.664 2.96 1.219 3.663 1.668C23.405 20.176 24 21.2 24 22.51v.994z" stroke="#4E439B" fill="none"/></symbol><symbol viewBox="0 0 16 16" id="shoppicon-icon-close"><g fill="#FFF" fill-rule="evenodd" transform="rotate(-45 8 8)"><path d="M0 7h16v2H0z"/><path d="M7 16V0h2v16z"/></g></symbol><symbol viewBox="0 0 67 28" id="shoppicon-logo"><g fill="none" fill-rule="evenodd"><path d="M34.702 3.405v24.068H36.4V.387h-2.547L28.22 24.338 22.547.387H20v27.086h1.582V3.483l5.711 23.95h1.775l5.634-24.028zM39.925.387v27.086h3.01v-10.68h2.663c4.283 0 6.29-2.244 6.29-6.54v-3.25c0-4.101-1.814-6.616-6.059-6.616h-5.904zm3.01 13.697V3.134h2.894c2.2 0 3.087 1.238 3.087 3.715v3.598c0 2.593-1.08 3.637-3.318 3.637h-2.663z"/><g transform="translate(50 1)"><path d="M10.93.412l1.4 2.779 2.78 1.4a.751.751 0 0 1 0 1.34l-2.78 1.4-1.4 2.78a.75.75 0 0 1-1.34 0L8.191 7.33l-2.78-1.4a.751.751 0 0 1 0-1.34l2.78-1.4 1.4-2.78a.752.752 0 0 1 1.339 0zm.172 3.675l-.842-1.67-.84 1.67a.756.756 0 0 1-.333.332l-1.671.842 1.671.842c.138.07.257.184.332.332l.841 1.672.842-1.672a.756.756 0 0 1 .332-.332l1.672-.842-1.672-.842a.757.757 0 0 1-.332-.332zM7.722 21.089H4.633V18H3.09v3.089H0v1.544h3.089v3.09h1.544v-3.09h3.089zM16.521 16.688h-2.688V14H12.49v2.688H9.801v1.344h2.688v2.688h1.344v-2.688h2.688z"/></g><g transform="translate(0 2)"><path d="M5.93 8.412l1.4 2.779 2.78 1.4a.751.751 0 0 1 0 1.34l-2.78 1.4-1.4 2.78a.75.75 0 0 1-1.34 0l-1.399-2.78-2.78-1.4a.751.751 0 0 1 0-1.34l2.78-1.4 1.4-2.78a.752.752 0 0 1 1.339 0zm.172 3.675l-.842-1.67-.84 1.67a.756.756 0 0 1-.333.332l-1.671.842 1.671.842c.138.07.257.184.332.332l.841 1.672.842-1.672a.756.756 0 0 1 .332-.332l1.672-.842-1.672-.842a.757.757 0 0 1-.332-.332zM16.722 3.089h-3.089V0H12.09v3.089H9v1.544h3.089v3.09h1.544v-3.09h3.089zM15.72 19.288h-2.288V17h-1.144v2.288H10v1.144h2.288v2.288h1.144v-2.288h2.288z"/></g></g></symbol><symbol viewBox="0 0 20 20" id="shoppicon-map"><g transform="translate(2 2)" fill-rule="evenodd"><path d="M7.984 6.86c.996 0 1.806-.81 1.806-1.806s-.81-1.807-1.806-1.807-1.806.811-1.806 1.807c0 .996.81 1.806 1.806 1.806zm0-3.096c.711 0 1.29.578 1.29 1.29 0 .711-.579 1.29-1.29 1.29-.711 0-1.29-.579-1.29-1.29 0-.712.579-1.29 1.29-1.29z"/><path d="M12.959 9.7h-1.848l.786-1.136c1.485-1.98 1.27-5.234-.46-6.963A4.916 4.916 0 0 0 7.939.15a4.917 4.917 0 0 0-3.499 1.45c-1.73 1.73-1.945 4.983-.466 6.955l.792 1.143H2.826L0 15.635h15.785L12.96 9.699zM4.392 8.253c-1.341-1.79-1.15-4.728.412-6.289A4.404 4.404 0 0 1 7.94.667c1.184 0 2.297.461 3.134 1.298 1.561 1.561 1.754 4.5.406 6.297l-3.54 5.113-2.546-3.676-1-1.445zm-1.24 1.961h1.97l2.816 4.067 2.816-4.067h1.879l2.335 4.903H.818l2.335-4.903z"/></g></symbol><symbol viewBox="0 0 20 20" id="shoppicon-menu"><g fill-rule="evenodd"><path d="M2 4h16l-1 2H2zM2 9h16l-1 2H2zM2 14h12l-1 2H2z"/></g></symbol><symbol viewBox="0 0 20 20" id="shoppicon-minus"><path d="M2 9h16v2H2z" fill-rule="evenodd"/></symbol><symbol viewBox="0 0 20 20" id="shoppicon-more"><path d="M10 14c.527 0 .993.201 1.396.604.403.403.604.869.604 1.396 0 .527-.201.993-.604 1.396-.403.403-.869.604-1.396.604-.527 0-.993-.201-1.396-.604C8.201 16.993 8 16.527 8 16c0-.527.201-.993.604-1.396C9.007 14.201 9.473 14 10 14zm0-6c.527 0 .993.201 1.396.604.403.403.604.869.604 1.396 0 .527-.201.993-.604 1.396-.403.403-.869.604-1.396.604-.527 0-.993-.201-1.396-.604C8.201 10.993 8 10.527 8 10c0-.527.201-.993.604-1.396C9.007 8.201 9.473 8 10 8zm0-2c-.527 0-.993-.201-1.396-.604C8.201 4.993 8 4.527 8 4c0-.527.201-.993.604-1.396C9.007 2.201 9.473 2 10 2c.527 0 .993.201 1.396.604.403.403.604.869.604 1.396 0 .527-.201.993-.604 1.396C10.993 5.799 10.527 6 10 6z" fill-rule="evenodd"/></symbol><symbol viewBox="0 11 144 21" id="shoppicon-nav-logo"><path d="M10.618 14.369v17.335h1.226V12.195h-1.839L5.936 29.446 1.84 12.196H0v19.508h1.143v-17.28l4.124 17.252H6.55l4.07-17.307zm4.738 6.856v-7.86h6.41v-1.17h-7.692v19.509h7.692v-1.171h-6.41v-8.138h5.323v-1.17h-5.323zm8.5-9.03v19.509h1.282V22.98h2.034c2.23 0 3.651.725 3.651 3.317v3.065c0 1.06.084 1.756.418 2.342h1.338c-.418-.641-.474-1.533-.474-2.342v-3.037c0-2.118-.808-3.54-2.815-3.986 1.923-.445 2.815-1.755 2.815-4.04v-1.7c0-2.76-1.198-4.404-4.18-4.404h-4.069zm1.282 9.615v-8.444h2.759c2.118 0 2.926 1.254 2.926 3.344v1.84c0 2.619-1.337 3.26-3.623 3.26h-2.062zm16.889 9.894v-1.171h-6.132V12.195h-1.281v19.509h7.413zm1.923-19.509v19.509h1.282V12.195H43.95zm4.682 2.118l6.103 17.39h1.421V12.196h-1.17v16.47l-5.853-16.47h-1.672v19.509h1.17v-17.39zm11.231.223v-2.34h-1.226v2.452h.418l-.558 2.118h.558l.808-2.23zm6.298-2.508c-2.87.028-4.152 1.923-4.152 4.85 0 5.434 7.05 5.517 7.05 10.2 0 2.09-.807 3.594-2.953 3.594s-2.954-1.505-2.954-3.595V25.99h-1.227v1.004c0 2.814 1.227 4.877 4.209 4.877 2.982 0 4.208-2.063 4.208-4.877 0-5.38-7.051-5.463-7.051-10.2 0-2.063.78-3.596 2.898-3.596 2.118 0 2.899 1.561 2.899 3.623v.502h1.226v-.418c0-2.815-1.198-4.877-4.153-4.877zm10.563.167v19.509h2.174v-7.692h1.923c3.093 0 4.542-1.617 4.542-4.71V16.96c0-2.954-1.31-4.766-4.375-4.766h-4.264zm2.174 9.866v-7.887h2.09c1.588 0 2.23.892 2.23 2.675v2.592c0 1.867-.781 2.62-2.397 2.62h-1.923zm8.082 4.933c0 2.954 1.477 4.905 4.459 4.905 3.01 0 4.487-1.951 4.487-4.905V16.905c0-2.982-1.477-4.905-4.487-4.905-2.982 0-4.46 1.923-4.46 4.905v10.089zm2.146-10.2c0-1.756.752-2.815 2.313-2.815 1.588 0 2.313 1.059 2.313 2.814v10.312c0 1.784-.725 2.815-2.313 2.815-1.56 0-2.313-1.031-2.313-2.815V16.793zm13.878 14.91v-17.53h3.596v-1.979h-9.364v1.979h3.595v17.53h2.173zm5.1-19.509v19.509h2.174V12.195h-2.173zm4.237 14.799c0 2.954 1.477 4.905 4.459 4.905 3.01 0 4.487-1.951 4.487-4.905V16.905c0-2.982-1.477-4.905-4.487-4.905-2.982 0-4.46 1.923-4.46 4.905v10.089zm2.146-10.2c0-1.756.752-2.815 2.313-2.815 1.588 0 2.313 1.059 2.313 2.814v10.312c0 1.784-.725 2.815-2.313 2.815-1.561 0-2.313-1.031-2.313-2.815V16.793zm10.785-.864l4.988 15.774h2.258V12.195h-1.923v14.102l-4.515-14.102h-2.759v19.509h1.95V15.93zM138.844 12c-2.926 0-4.32 1.867-4.32 4.877 0 5.49 6.522 5.908 6.522 10.256 0 1.756-.725 2.787-2.285 2.787-1.561 0-2.286-1.031-2.286-2.787v-1.226h-2.034v1.114c0 2.955 1.393 4.878 4.375 4.878s4.404-1.923 4.404-4.878c0-5.49-6.55-5.908-6.55-10.283 0-1.728.67-2.76 2.23-2.76s2.23 1.032 2.23 2.788v.64h2.062v-.529c0-2.954-1.394-4.877-4.348-4.877z" fill="#FFF" fill-rule="evenodd"/></symbol><symbol viewBox="0 0 20 20" id="shoppicon-plus"><g transform="translate(2 2)" fill-rule="evenodd"><path d="M0 7h16v2H0z"/><path d="M7 16V0h2v16z"/></g></symbol><symbol viewBox="0 0 20 20" id="shoppicon-question"><path d="M6.12 6.78l1.26.02c.08-1.48 1.02-2.22 2.5-2.22 1.44 0 2.46.68 2.46 2.06 0 2.76-2.98 2.64-2.98 5.96h1.24c0-2.92 3.2-2.9 3.2-6.16 0-2.14-1.58-3.22-3.78-3.22-2.3 0-3.8 1.28-3.9 3.56zm3.84 8.34c-.56 0-.98.44-.98 1.02 0 .58.42 1.02.98 1.02.54 0 .96-.44.96-1.02 0-.58-.42-1.02-.96-1.02z" fill-rule="evenodd"/></symbol><symbol viewBox="0 0 20 20" id="shoppicon-search"><path d="M13.199 11.942a6.181 6.181 0 0 0 1.245-3.72A6.23 6.23 0 0 0 8.222 2 6.23 6.23 0 0 0 2 8.222a6.23 6.23 0 0 0 6.222 6.222c1.395 0 2.68-.467 3.72-1.245l4.69 4.69 1.257-1.256-4.69-4.691zm-4.977-9.35a5.636 5.636 0 0 1 5.63 5.63 5.636 5.636 0 0 1-5.63 5.63 5.636 5.636 0 0 1-5.63-5.63 5.636 5.636 0 0 1 5.63-5.63zm4.472 9.947c.043-.045.09-.086.132-.132l4.226 4.226-.42.419-4.225-4.226c.046-.042.087-.089.131-.132.053-.05.105-.103.156-.155z" fill-rule="evenodd"/></symbol><symbol viewBox="0 0 20 20" id="shoppicon-star"><path d="M18 8.116l-5.753-.519L10 2.017l-2.247 5.58L2 8.116l4.364 3.966-1.308 5.9L10 14.855l4.944 3.129-1.308-5.9z" fill-rule="evenodd"/></symbol><symbol viewBox="0 0 20 20" id="shoppicon-store"><g transform="translate(2 3)" fill-rule="evenodd"><path d="M11.353 7.962H9.182c-.594 0-1.078.506-1.078 1.129v1.744c0 .623.484 1.13 1.078 1.13h2.171c.595 0 1.078-.507 1.078-1.13V9.091c0-.623-.483-1.13-1.078-1.13zm.294 2.873a.302.302 0 0 1-.294.308H9.182a.302.302 0 0 1-.294-.308V9.091c0-.171.134-.308.294-.308h2.171c.164 0 .294.14.294.308v1.744z"/><path d="M15.98 4.79a.395.395 0 0 0-.052-.201L13.551.21a.391.391 0 0 0-.34-.208H2.766a.385.385 0 0 0-.34.208L.052 4.59A.43.43 0 0 0 0 4.791c0 .982.565 1.823 1.371 2.196v7.221c0 .226.177.41.392.41h12.451a.403.403 0 0 0 .392-.41v-7.17c0-.017 0-.03-.004-.044.81-.373 1.378-1.218 1.378-2.203zM2.994.827h9.989L14.84 4.25H1.14L2.994.826zm8.38 4.242c-.125.739-.742 1.3-1.483 1.3-.742 0-1.359-.561-1.483-1.3h2.965zm-3.798 0c-.125.739-.742 1.3-1.483 1.3-.741 0-1.358-.561-1.486-1.3h2.969zm-6.766 0h2.968c-.124.739-.745 1.3-1.486 1.3-.741.003-1.358-.561-1.482-1.3zm5.773 8.73H4.33v-4.43c0-.322.248-.585.558-.585h1.14c.307 0 .558.26.558.585v4.43h-.003zm7.239 0H7.367v-4.43c0-.773-.601-1.406-1.343-1.406h-1.14c-.737 0-1.341.63-1.341 1.406V13.8H2.155V7.19a2.264 2.264 0 0 0 2.038-1.057c.411.64 1.11 1.06 1.9 1.06.79 0 1.486-.42 1.9-1.06.412.64 1.11 1.06 1.898 1.06.79 0 1.485-.42 1.897-1.06.411.64 1.11 1.06 1.9 1.06.046 0 .088-.003.134-.003v6.609zm-.134-7.427c-.741 0-1.358-.56-1.482-1.3h2.968c-.127.736-.745 1.3-1.486 1.3z"/></g></symbol><symbol viewBox="0 0 20 20" id="shoppicon-user"><path d="M18 17.669c0 .091-.027.17-.078.234a.319.319 0 0 1-.234.097H2.333a.32.32 0 0 1-.235-.097A.32.32 0 0 1 2 17.67v-.663c0-.86.392-1.542 1.172-2.05.457-.273 1.088-.573 1.895-.897.809-.312 1.387-.56 1.739-.741.795-.403 1.192-.951 1.192-1.64-.639-.65-1.172-1.632-1.602-2.946-.26-.833-.39-1.77-.39-2.81 0-1.053.39-1.97 1.172-2.751C7.96 2.39 8.896 2 9.99 2c1.107 0 2.052.39 2.834 1.17.793.782 1.19 1.724 1.19 2.83 0 .676-.072 1.34-.215 1.991-.233 1.04-.598 1.95-1.093 2.73-.274.444-.507.755-.704.938 0 .69.399 1.242 1.192 1.659.352.181.742.358 1.172.526 1.16.443 1.974.812 2.442 1.112.795.495 1.192 1.177 1.192 2.05v.663z" stroke="currentColor" fill-rule="evenodd" fill="transparent"/></symbol></svg>