<svg width="16" height="16" viewBox="0 0 16 16" xmlns="http://www.w3.org/2000/svg"><title>[icon]/complete/inactive</title><path d="M6.34 13.097A.592.592 0 0 0 6 13a.592.592 0 0 0-.339.097l.34.477.338-.477zm6.99-9.855L6 10.207l-.689-.657-2.643-2.519L1.31 8.318l5.138 4.868-.687.726.24-.338.24.338-.687-.726L14.69 4.53l-1.36-1.288zm2.573 1.516l-9.661 9.154a.402.402 0 0 1-.24.088.402.402 0 0 1-.241-.088L.097 8.546a.316.316 0 0 1 0-.456L2.43 5.88a.36.36 0 0 1 .481 0l3.091 2.946 7.089-6.734a.36.36 0 0 1 .48 0l2.333 2.21c.13.123.13.333 0 .456z" fill="#BBB" fill-rule="evenodd"/></svg>