<svg xmlns="http://www.w3.org/2000/svg" width="17" height="24" viewBox="0 0 17 24"><path fill="#EC5D76" fill-rule="evenodd" d="M14.172 10.605V5.727C14.172 2.562 11.565 0 8.348 0 5.13 0 2.523 2.563 2.523 5.726v4.879c0 3.162 2.608 5.746 5.825 5.746s5.824-2.584 5.824-5.746zm2.524 0a.846.846 0 0 0-.862-.848.846.846 0 0 0-.863.848c0 3.597-2.964 6.511-6.623 6.511-3.659 0-6.624-2.914-6.624-6.511a.846.846 0 0 0-.862-.848.846.846 0 0 0-.862.848c0 4.237 3.28 7.73 7.486 8.165v3.535H2.67a.846.846 0 0 0-.862.847c0 .476.379.848.862.848h10.998a.846.846 0 0 0 .862-.848.846.846 0 0 0-.862-.847H9.21V18.77c4.205-.434 7.486-3.928 7.486-8.165z"/></svg>